<?xml version="1.0" encoding="utf-8"?>
<!-- Generator: Adobe Illustrator 16.0.0, SVG Export Plug-In . SVG Version: 6.00 Build 0)  -->
<!DOCTYPE svg PUBLIC "-//W3C//DTD SVG 1.1//EN" "http://www.w3.org/Graphics/SVG/1.1/DTD/svg11.dtd">
<svg version="1.1" id="Layer_1" xmlns="http://www.w3.org/2000/svg" xmlns:xlink="http://www.w3.org/1999/xlink" x="0px" y="0px"
	 width="35px" height="35px" viewBox="0 0 35 35" enable-background="new 0 0 35 35" xml:space="preserve">
<g>
	<path fill="#235B9E" d="M35,17.5c0,9.663-7.836,17.499-17.498,17.499C7.836,34.999,0,27.163,0,17.5C0,7.834,7.836,0,17.502,0
		C27.164,0,35,7.834,35,17.5z"/>
	<g>
		<path fill="#FFFFFF" d="M14.583,28.437h4.375c0,0,0-6.039,0-10.937h3.246l0.398-4.375h-3.477v-1.749
			c0-0.854,0.568-1.052,0.967-1.052c0.4,0,2.455,0,2.455,0V6.576l-3.38-0.014c-3.751,0-4.604,2.795-4.604,4.585v1.978h-2.169V17.5
			h2.187C14.583,22.457,14.583,28.437,14.583,28.437z"/>
	</g>
	<path fill="#235B9E" d="M35,17.5c0,9.663-7.836,17.499-17.498,17.499C7.836,34.999,0,27.163,0,17.5C0,7.834,7.836,0,17.502,0
		C27.164,0,35,7.834,35,17.5z"/>
	<g>
		<path fill="#FFFFFF" d="M14.583,28.437h4.375c0,0,0-6.039,0-10.937h3.246l0.398-4.375h-3.477v-1.749
			c0-0.854,0.568-1.052,0.967-1.052c0.4,0,2.455,0,2.455,0V6.576l-3.38-0.014c-3.751,0-4.604,2.795-4.604,4.585v1.978h-2.169V17.5
			h2.187C14.583,22.457,14.583,28.437,14.583,28.437z"/>
	</g>
	<path fill="#235B9E" d="M35,17.5c0,9.663-7.836,17.499-17.498,17.499C7.836,34.999,0,27.163,0,17.5C0,7.834,7.836,0,17.502,0
		C27.164,0,35,7.834,35,17.5z"/>
	<g>
		<path fill="#FFFFFF" d="M14.583,28.437h4.375c0,0,0-6.039,0-10.937h3.246l0.398-4.375h-3.477v-1.749
			c0-0.854,0.568-1.052,0.967-1.052c0.4,0,2.455,0,2.455,0V6.576l-3.38-0.014c-3.751,0-4.604,2.795-4.604,4.585v1.978h-2.169V17.5
			h2.187C14.583,22.457,14.583,28.437,14.583,28.437z"/>
	</g>
</g>
</svg>
