<?xml version="1.0" encoding="utf-8"?>
<!-- Generator: Adobe Illustrator 16.0.0, SVG Export Plug-In . SVG Version: 6.00 Build 0)  -->
<!DOCTYPE svg PUBLIC "-//W3C//DTD SVG 1.1//EN" "http://www.w3.org/Graphics/SVG/1.1/DTD/svg11.dtd">
<svg version="1.1" id="Layer_1" xmlns="http://www.w3.org/2000/svg" xmlns:xlink="http://www.w3.org/1999/xlink" x="0px" y="0px"
	 width="35px" height="35px" viewBox="0 0 35 35" enable-background="new 0 0 35 35" xml:space="preserve">
<g>
	<ellipse fill="#245FA5" cx="17.501" cy="17.469" rx="17.5" ry="17.474"/>
	<path id="Photobucket_4_" fill="#FFFFFF" d="M27.444,11.191h-6.097c-1.14-0.637-2.45-1-3.847-1s-2.708,0.363-3.847,1h-2.118
		c0-0.55-0.448-1-0.995-1H8.552c-0.546,0-0.994,0.45-0.994,1l0,0c-0.546,0-0.995,0.452-0.995,1.002v12.011
		c0,0.552,0.449,1.001,0.995,1.001h6.096c1.14,0.636,2.451,1,3.847,1s2.707-0.364,3.847-1h6.097c0.547,0,0.994-0.449,0.994-1.001
		V12.193C28.438,11.644,27.991,11.191,27.444,11.191L27.444,11.191z M7.558,24.204V12.193h0.994h1.99h1.71
		c-1.654,1.465-2.705,3.608-2.705,6.007c0,2.394,1.05,4.536,2.705,6.004H7.558z M21.072,24.204c-0.513,0.31-1.067,0.556-1.655,0.724
		c-0.035,0.011-0.069,0.019-0.104,0.029c-0.237,0.065-0.482,0.115-0.73,0.153c-0.066,0.014-0.136,0.024-0.204,0.034
		c-0.288,0.036-0.58,0.061-0.878,0.061c-0.298,0-0.592-0.024-0.878-0.061c-0.068-0.01-0.137-0.021-0.204-0.034
		c-0.249-0.038-0.492-0.088-0.731-0.153c-0.034-0.011-0.069-0.019-0.104-0.029c-0.587-0.168-1.143-0.414-1.655-0.724
		c-2.028-1.226-3.389-3.453-3.389-6.004c0-2.552,1.361-4.783,3.389-6.007c0.512-0.311,1.068-0.557,1.655-0.726
		c0.035-0.009,0.07-0.017,0.104-0.028c0.239-0.064,0.481-0.114,0.73-0.151c0.068-0.014,0.138-0.027,0.206-0.036
		c0.288-0.036,0.579-0.061,0.877-0.061c0.297,0,0.59,0.024,0.877,0.061c0.068,0.009,0.139,0.022,0.207,0.036
		c0.248,0.037,0.491,0.087,0.729,0.151c0.033,0.012,0.067,0.02,0.104,0.028c0.587,0.169,1.142,0.415,1.655,0.726
		c2.027,1.224,3.389,3.455,3.389,6.007C24.462,20.751,23.101,22.979,21.072,24.204L21.072,24.204z M27.444,24.204h-4.693
		c1.654-1.468,2.705-3.61,2.705-6.004c0-2.398-1.051-4.542-2.705-6.007h4.693V24.204L27.444,24.204z M22.971,18.2H22.13
		c0-2.57-2.077-4.662-4.629-4.662v-0.845C20.518,12.692,22.971,15.161,22.971,18.2z"/>
</g>
</svg>
