<?xml version="1.0" encoding="utf-8"?>
<!-- Generator: Adobe Illustrator 16.0.0, SVG Export Plug-In . SVG Version: 6.00 Build 0)  -->
<!DOCTYPE svg PUBLIC "-//W3C//DTD SVG 1.1//EN" "http://www.w3.org/Graphics/SVG/1.1/DTD/svg11.dtd">
<svg version="1.1" id="Layer_1" xmlns="http://www.w3.org/2000/svg" xmlns:xlink="http://www.w3.org/1999/xlink" x="0px" y="0px"
	 width="35px" height="35px" viewBox="0 0 35 35" enable-background="new 0 0 35 35" xml:space="preserve">
<g>
	<circle fill="#00AAE2" cx="17.5" cy="17.499" r="17.5"/>
	<g>
		<path fill="#FFFFFF" d="M9.505,13.912c0.004,1.027,0.024,2.063,0.029,3.096c0.001,1.112,0.005,2.225,0.005,3.336
			c0,6.227,5.716,7.992,6.812,7.992c1.097,0,5.393,0.1,6.168,0.1s3.002-0.203,3.002-2.434c0-2.229-1.58-3.029-2.645-3.029h-4.266
			c-3.034,0-3.518-1.33-3.518-2.561c0-0.585,0.037-1.55,0.073-2.73h7.125c1.068,0,3.1-0.434,3.1-2.365
			c0-1.93-0.938-3.195-2.195-3.195h-7.94c-0.009-2.784-0.192-5.559-2.938-5.559c-1.136,0-2.059,0.462-2.446,1.609
			C9.359,9.68,9.495,11.444,9.5,13.015C9.503,13.313,9.505,13.612,9.505,13.912z"/>
	</g>
	<circle fill="#00AAE2" cx="17.5" cy="17.499" r="17.5"/>
	<g>
		<path fill="#FFFFFF" d="M9.505,13.912c0.004,1.027,0.024,2.063,0.029,3.096c0.001,1.112,0.005,2.225,0.005,3.336
			c0,6.227,5.716,7.992,6.812,7.992c1.097,0,5.393,0.1,6.168,0.1s3.002-0.203,3.002-2.434c0-2.229-1.58-3.029-2.645-3.029h-4.266
			c-3.034,0-3.518-1.33-3.518-2.561c0-0.585,0.037-1.55,0.073-2.73h7.125c1.068,0,3.1-0.434,3.1-2.365
			c0-1.93-0.938-3.195-2.195-3.195h-7.94c-0.009-2.784-0.192-5.559-2.938-5.559c-1.136,0-2.059,0.462-2.446,1.609
			C9.359,9.68,9.495,11.444,9.5,13.015C9.503,13.313,9.505,13.612,9.505,13.912z"/>
	</g>
	<circle fill="#00AAE2" cx="17.5" cy="17.499" r="17.5"/>
	<g>
		<path fill="#FFFFFF" d="M9.505,13.912c0.004,1.027,0.024,2.063,0.029,3.096c0.001,1.112,0.005,2.225,0.005,3.336
			c0,6.227,5.716,7.992,6.812,7.992c1.097,0,5.393,0.1,6.168,0.1s3.002-0.203,3.002-2.434c0-2.229-1.58-3.029-2.645-3.029h-4.266
			c-3.034,0-3.518-1.33-3.518-2.561c0-0.585,0.037-1.55,0.073-2.73h7.125c1.068,0,3.1-0.434,3.1-2.365
			c0-1.93-0.938-3.195-2.195-3.195h-7.94c-0.009-2.784-0.192-5.559-2.938-5.559c-1.136,0-2.059,0.462-2.446,1.609
			C9.359,9.68,9.495,11.444,9.5,13.015C9.503,13.313,9.505,13.612,9.505,13.912z"/>
	</g>
</g>
</svg>
