<?xml version="1.0" encoding="utf-8"?>
<!-- Generator: Adobe Illustrator 16.0.0, SVG Export Plug-In . SVG Version: 6.00 Build 0)  -->
<!DOCTYPE svg PUBLIC "-//W3C//DTD SVG 1.1//EN" "http://www.w3.org/Graphics/SVG/1.1/DTD/svg11.dtd">
<svg version="1.1" id="Layer_1" xmlns="http://www.w3.org/2000/svg" xmlns:xlink="http://www.w3.org/1999/xlink" x="0px" y="0px"
	 width="35px" height="35px" viewBox="0 0 35 35" enable-background="new 0 0 35 35" xml:space="preserve">
<g>
	<ellipse fill="#EF5045" cx="17.501" cy="17.415" rx="17.5" ry="17.414"/>
	<g>
		<path fill="#FFFFFF" d="M23.352,21.18c-0.176,0-0.303,0.051-0.377,0.155c-0.078,0.099-0.116,0.27-0.116,0.505v0.569h0.979V21.84
			c0-0.235-0.04-0.406-0.116-0.505C23.646,21.23,23.521,21.18,23.352,21.18z"/>
		<g>
			<path fill="#FFFFFF" d="M19.536,21.16c-0.078,0-0.158,0.018-0.235,0.056c-0.076,0.036-0.152,0.093-0.227,0.172v3.509
				c0.088,0.09,0.176,0.16,0.261,0.2c0.085,0.038,0.174,0.061,0.269,0.061c0.135,0,0.234-0.04,0.299-0.12
				c0.063-0.08,0.095-0.208,0.095-0.39v-2.906c0-0.192-0.038-0.336-0.115-0.436C19.801,21.211,19.686,21.16,19.536,21.16z"/>
			<g>
				<path fill="#FFFFFF" d="M24.442,16.687H10.56c-2.208,0-3.997,2.034-3.997,4.278v3.267c0,2.247,1.79,4.066,3.997,4.066h13.882
					c2.207,0,3.997-1.819,3.997-4.066v-3.267C28.439,18.721,26.649,16.687,24.442,16.687z M13.477,19.441h-1.291v6.525h-1.248
					v-6.525h-1.29v-1.109h3.828V19.441z M17.122,25.967h-1.106V25.35c-0.205,0.228-0.417,0.402-0.638,0.521
					c-0.221,0.122-0.434,0.18-0.643,0.18c-0.257,0-0.447-0.083-0.577-0.252c-0.128-0.168-0.195-0.418-0.195-0.755v-4.71h1.107v4.322
					c0,0.133,0.024,0.229,0.068,0.287c0.048,0.063,0.124,0.09,0.228,0.09c0.08,0,0.184-0.038,0.309-0.118
					c0.124-0.078,0.239-0.18,0.342-0.302v-4.279h1.106V25.967z M21.139,24.804c0,0.397-0.087,0.703-0.262,0.917
					c-0.172,0.213-0.424,0.317-0.751,0.317c-0.218,0-0.41-0.039-0.579-0.121c-0.169-0.081-0.329-0.208-0.473-0.381v0.431h-1.119
					v-7.635h1.119v2.46c0.15-0.172,0.309-0.303,0.474-0.392c0.169-0.092,0.339-0.135,0.511-0.135c0.351,0,0.618,0.119,0.802,0.359
					c0.185,0.239,0.278,0.591,0.278,1.053V24.804z M24.975,23.285h-2.116v1.063c0,0.295,0.036,0.502,0.108,0.618
					c0.073,0.113,0.198,0.169,0.376,0.169c0.184,0,0.312-0.048,0.384-0.146s0.11-0.312,0.11-0.642V24.09h1.138v0.29
					c0,0.577-0.137,1.013-0.417,1.306c-0.274,0.29-0.688,0.435-1.241,0.435c-0.496,0-0.888-0.153-1.172-0.465
					c-0.283-0.306-0.427-0.733-0.427-1.275v-2.531c0-0.485,0.157-0.887,0.472-1.194c0.313-0.307,0.713-0.461,1.21-0.461
					c0.507,0,0.896,0.143,1.168,0.429c0.272,0.285,0.407,0.693,0.407,1.227V23.285z"/>
				<polygon fill="#FFFFFF" points="10.708,6.53 12.377,11.609 12.377,14.94 13.78,14.94 13.78,11.452 15.413,6.53 13.986,6.53 
					13.119,9.893 13.031,9.893 12.119,6.53 				"/>
				<path fill="#FFFFFF" d="M16.016,9.007c-0.333,0.285-0.501,0.666-0.501,1.148v3.217c0,0.527,0.164,0.945,0.488,1.258
					c0.329,0.311,0.766,0.469,1.311,0.469c0.565,0,1.009-0.152,1.334-0.453c0.321-0.304,0.483-0.717,0.483-1.248V10.19
					c0-0.472-0.166-0.861-0.494-1.161c-0.33-0.298-0.751-0.448-1.268-0.448C16.803,8.581,16.352,8.723,16.016,9.007z M17.861,10.108
					v3.381c0,0.166-0.051,0.297-0.149,0.393c-0.1,0.094-0.235,0.142-0.403,0.142c-0.166,0-0.292-0.044-0.38-0.141
					c-0.089-0.093-0.133-0.224-0.133-0.394v-3.381c0-0.135,0.048-0.244,0.141-0.33c0.097-0.082,0.219-0.124,0.372-0.124
					c0.165,0,0.297,0.042,0.399,0.124C17.81,9.864,17.861,9.974,17.861,10.108z"/>
				<path fill="#FFFFFF" d="M23.696,14.94V8.737H22.45v4.709c-0.115,0.137-0.244,0.246-0.384,0.335
					c-0.143,0.087-0.258,0.131-0.349,0.131c-0.116,0-0.202-0.032-0.253-0.1c-0.051-0.065-0.08-0.172-0.08-0.318V8.737H20.14v5.187
					c0,0.37,0.074,0.646,0.22,0.829c0.146,0.186,0.361,0.279,0.651,0.279c0.234,0,0.474-0.066,0.722-0.199
					c0.25-0.131,0.49-0.325,0.718-0.578v0.686H23.696z"/>
			</g>
		</g>
	</g>
	<ellipse fill="#EF5045" cx="17.501" cy="17.415" rx="17.5" ry="17.414"/>
	<g>
		<path fill="#FFFFFF" d="M23.352,21.18c-0.176,0-0.303,0.051-0.377,0.155c-0.078,0.099-0.116,0.27-0.116,0.505v0.569h0.979V21.84
			c0-0.235-0.04-0.406-0.116-0.505C23.646,21.23,23.521,21.18,23.352,21.18z"/>
		<g>
			<path fill="#FFFFFF" d="M19.536,21.16c-0.078,0-0.158,0.018-0.235,0.056c-0.076,0.036-0.152,0.093-0.227,0.172v3.509
				c0.088,0.09,0.176,0.16,0.261,0.2c0.085,0.038,0.174,0.061,0.269,0.061c0.135,0,0.234-0.04,0.299-0.12
				c0.063-0.08,0.095-0.208,0.095-0.39v-2.906c0-0.192-0.038-0.336-0.115-0.436C19.801,21.211,19.686,21.16,19.536,21.16z"/>
			<g>
				<path fill="#FFFFFF" d="M24.442,16.687H10.56c-2.208,0-3.997,2.034-3.997,4.278v3.267c0,2.247,1.79,4.066,3.997,4.066h13.882
					c2.207,0,3.997-1.819,3.997-4.066v-3.267C28.439,18.721,26.649,16.687,24.442,16.687z M13.477,19.441h-1.291v6.525h-1.248
					v-6.525h-1.29v-1.109h3.828V19.441z M17.122,25.967h-1.106V25.35c-0.205,0.228-0.417,0.402-0.638,0.521
					c-0.221,0.122-0.434,0.18-0.643,0.18c-0.257,0-0.447-0.083-0.577-0.252c-0.128-0.168-0.195-0.418-0.195-0.755v-4.71h1.107v4.322
					c0,0.133,0.024,0.229,0.068,0.287c0.048,0.063,0.124,0.09,0.228,0.09c0.08,0,0.184-0.038,0.309-0.118
					c0.124-0.078,0.239-0.18,0.342-0.302v-4.279h1.106V25.967z M21.139,24.804c0,0.397-0.087,0.703-0.262,0.917
					c-0.172,0.213-0.424,0.317-0.751,0.317c-0.218,0-0.41-0.039-0.579-0.121c-0.169-0.081-0.329-0.208-0.473-0.381v0.431h-1.119
					v-7.635h1.119v2.46c0.15-0.172,0.309-0.303,0.474-0.392c0.169-0.092,0.339-0.135,0.511-0.135c0.351,0,0.618,0.119,0.802,0.359
					c0.185,0.239,0.278,0.591,0.278,1.053V24.804z M24.975,23.285h-2.116v1.063c0,0.295,0.036,0.502,0.108,0.618
					c0.073,0.113,0.198,0.169,0.376,0.169c0.184,0,0.312-0.048,0.384-0.146s0.11-0.312,0.11-0.642V24.09h1.138v0.29
					c0,0.577-0.137,1.013-0.417,1.306c-0.274,0.29-0.688,0.435-1.241,0.435c-0.496,0-0.888-0.153-1.172-0.465
					c-0.283-0.306-0.427-0.733-0.427-1.275v-2.531c0-0.485,0.157-0.887,0.472-1.194c0.313-0.307,0.713-0.461,1.21-0.461
					c0.507,0,0.896,0.143,1.168,0.429c0.272,0.285,0.407,0.693,0.407,1.227V23.285z"/>
				<polygon fill="#FFFFFF" points="10.708,6.53 12.377,11.609 12.377,14.94 13.78,14.94 13.78,11.452 15.413,6.53 13.986,6.53 
					13.119,9.893 13.031,9.893 12.119,6.53 				"/>
				<path fill="#FFFFFF" d="M16.016,9.007c-0.333,0.285-0.501,0.666-0.501,1.148v3.217c0,0.527,0.164,0.945,0.488,1.258
					c0.329,0.311,0.766,0.469,1.311,0.469c0.565,0,1.009-0.152,1.334-0.453c0.321-0.304,0.483-0.717,0.483-1.248V10.19
					c0-0.472-0.166-0.861-0.494-1.161c-0.33-0.298-0.751-0.448-1.268-0.448C16.803,8.581,16.352,8.723,16.016,9.007z M17.861,10.108
					v3.381c0,0.166-0.051,0.297-0.149,0.393c-0.1,0.094-0.235,0.142-0.403,0.142c-0.166,0-0.292-0.044-0.38-0.141
					c-0.089-0.093-0.133-0.224-0.133-0.394v-3.381c0-0.135,0.048-0.244,0.141-0.33c0.097-0.082,0.219-0.124,0.372-0.124
					c0.165,0,0.297,0.042,0.399,0.124C17.81,9.864,17.861,9.974,17.861,10.108z"/>
				<path fill="#FFFFFF" d="M23.696,14.94V8.737H22.45v4.709c-0.115,0.137-0.244,0.246-0.384,0.335
					c-0.143,0.087-0.258,0.131-0.349,0.131c-0.116,0-0.202-0.032-0.253-0.1c-0.051-0.065-0.08-0.172-0.08-0.318V8.737H20.14v5.187
					c0,0.37,0.074,0.646,0.22,0.829c0.146,0.186,0.361,0.279,0.651,0.279c0.234,0,0.474-0.066,0.722-0.199
					c0.25-0.131,0.49-0.325,0.718-0.578v0.686H23.696z"/>
			</g>
		</g>
	</g>
	<ellipse fill="#EF5045" cx="17.501" cy="17.415" rx="17.5" ry="17.414"/>
	<g>
		<path fill="#FFFFFF" d="M23.352,21.18c-0.176,0-0.303,0.051-0.377,0.155c-0.078,0.099-0.116,0.27-0.116,0.505v0.569h0.979V21.84
			c0-0.235-0.04-0.406-0.116-0.505C23.646,21.23,23.521,21.18,23.352,21.18z"/>
		<g>
			<path fill="#FFFFFF" d="M19.536,21.16c-0.078,0-0.158,0.018-0.235,0.056c-0.076,0.036-0.152,0.093-0.227,0.172v3.509
				c0.088,0.09,0.176,0.16,0.261,0.2c0.085,0.038,0.174,0.061,0.269,0.061c0.135,0,0.234-0.04,0.299-0.12
				c0.063-0.08,0.095-0.208,0.095-0.39v-2.906c0-0.192-0.038-0.336-0.115-0.436C19.801,21.211,19.686,21.16,19.536,21.16z"/>
			<g>
				<path fill="#FFFFFF" d="M24.442,16.687H10.56c-2.208,0-3.997,2.034-3.997,4.278v3.267c0,2.247,1.79,4.066,3.997,4.066h13.882
					c2.207,0,3.997-1.819,3.997-4.066v-3.267C28.439,18.721,26.649,16.687,24.442,16.687z M13.477,19.441h-1.291v6.525h-1.248
					v-6.525h-1.29v-1.109h3.828V19.441z M17.122,25.967h-1.106V25.35c-0.205,0.228-0.417,0.402-0.638,0.521
					c-0.221,0.122-0.434,0.18-0.643,0.18c-0.257,0-0.447-0.083-0.577-0.252c-0.128-0.168-0.195-0.418-0.195-0.755v-4.71h1.107v4.322
					c0,0.133,0.024,0.229,0.068,0.287c0.048,0.063,0.124,0.09,0.228,0.09c0.08,0,0.184-0.038,0.309-0.118
					c0.124-0.078,0.239-0.18,0.342-0.302v-4.279h1.106V25.967z M21.139,24.804c0,0.397-0.087,0.703-0.262,0.917
					c-0.172,0.213-0.424,0.317-0.751,0.317c-0.218,0-0.41-0.039-0.579-0.121c-0.169-0.081-0.329-0.208-0.473-0.381v0.431h-1.119
					v-7.635h1.119v2.46c0.15-0.172,0.309-0.303,0.474-0.392c0.169-0.092,0.339-0.135,0.511-0.135c0.351,0,0.618,0.119,0.802,0.359
					c0.185,0.239,0.278,0.591,0.278,1.053V24.804z M24.975,23.285h-2.116v1.063c0,0.295,0.036,0.502,0.108,0.618
					c0.073,0.113,0.198,0.169,0.376,0.169c0.184,0,0.312-0.048,0.384-0.146s0.11-0.312,0.11-0.642V24.09h1.138v0.29
					c0,0.577-0.137,1.013-0.417,1.306c-0.274,0.29-0.688,0.435-1.241,0.435c-0.496,0-0.888-0.153-1.172-0.465
					c-0.283-0.306-0.427-0.733-0.427-1.275v-2.531c0-0.485,0.157-0.887,0.472-1.194c0.313-0.307,0.713-0.461,1.21-0.461
					c0.507,0,0.896,0.143,1.168,0.429c0.272,0.285,0.407,0.693,0.407,1.227V23.285z"/>
				<polygon fill="#FFFFFF" points="10.708,6.53 12.377,11.609 12.377,14.94 13.78,14.94 13.78,11.452 15.413,6.53 13.986,6.53 
					13.119,9.893 13.031,9.893 12.119,6.53 				"/>
				<path fill="#FFFFFF" d="M16.016,9.007c-0.333,0.285-0.501,0.666-0.501,1.148v3.217c0,0.527,0.164,0.945,0.488,1.258
					c0.329,0.311,0.766,0.469,1.311,0.469c0.565,0,1.009-0.152,1.334-0.453c0.321-0.304,0.483-0.717,0.483-1.248V10.19
					c0-0.472-0.166-0.861-0.494-1.161c-0.33-0.298-0.751-0.448-1.268-0.448C16.803,8.581,16.352,8.723,16.016,9.007z M17.861,10.108
					v3.381c0,0.166-0.051,0.297-0.149,0.393c-0.1,0.094-0.235,0.142-0.403,0.142c-0.166,0-0.292-0.044-0.38-0.141
					c-0.089-0.093-0.133-0.224-0.133-0.394v-3.381c0-0.135,0.048-0.244,0.141-0.33c0.097-0.082,0.219-0.124,0.372-0.124
					c0.165,0,0.297,0.042,0.399,0.124C17.81,9.864,17.861,9.974,17.861,10.108z"/>
				<path fill="#FFFFFF" d="M23.696,14.94V8.737H22.45v4.709c-0.115,0.137-0.244,0.246-0.384,0.335
					c-0.143,0.087-0.258,0.131-0.349,0.131c-0.116,0-0.202-0.032-0.253-0.1c-0.051-0.065-0.08-0.172-0.08-0.318V8.737H20.14v5.187
					c0,0.37,0.074,0.646,0.22,0.829c0.146,0.186,0.361,0.279,0.651,0.279c0.234,0,0.474-0.066,0.722-0.199
					c0.25-0.131,0.49-0.325,0.718-0.578v0.686H23.696z"/>
			</g>
		</g>
	</g>
</g>
</svg>
